<svg width="87" height="35" viewBox="0 0 87 35" fill="none" xmlns="http://www.w3.org/2000/svg">
<path d="M0 17.5C0 7.83502 7.83502 0 17.5 0H69.5C79.165 0 87 7.83502 87 17.5V17.5C87 27.165 79.165 35 69.5 35H17.5C7.83502 35 0 27.165 0 17.5V17.5Z" fill="#5A3F92"/>
<path d="M26.672 19.672H23.444L22.676 22H21.692L24.5 13.6H25.676L28.508 22H27.464L26.672 19.672ZM23.756 18.808H26.396L25.16 14.86H25.016L23.756 18.808ZM29.1753 13.6H35.4153V15.796H34.5273V14.488H32.7873V21.112H34.1073V22H30.4713V21.112H31.7913V14.488H30.0633V15.796H29.1753V13.6ZM36.3706 13.6H42.6106V15.796H41.7226V14.488H39.9826V21.112H41.3026V22H37.6666V21.112H38.9866V14.488H37.2586V15.796H36.3706V13.6ZM48.2579 19.672H45.0299L44.2619 22H43.2779L46.0859 13.6H47.2619L50.0939 22H49.0499L48.2579 19.672ZM45.3419 18.808H47.9819L46.7459 14.86H46.6019L45.3419 18.808ZM55.7773 14.512C55.6413 14.456 55.4893 14.416 55.3213 14.392C55.1613 14.36 54.9653 14.344 54.7333 14.344C54.4053 14.344 54.0813 14.404 53.7613 14.524C53.4493 14.644 53.1693 14.84 52.9213 15.112C52.6813 15.384 52.4853 15.74 52.3333 16.18C52.1893 16.62 52.1173 17.16 52.1173 17.8C52.1173 18.376 52.1813 18.88 52.3093 19.312C52.4453 19.744 52.6293 20.104 52.8613 20.392C53.1013 20.68 53.3853 20.896 53.7133 21.04C54.0493 21.184 54.4213 21.256 54.8293 21.256C55.0373 21.256 55.2293 21.24 55.4053 21.208C55.5893 21.168 55.7573 21.116 55.9093 21.052V19.852H56.7973V21.472L56.8093 21.496C56.5693 21.68 56.2653 21.836 55.8973 21.964C55.5293 22.084 55.0813 22.144 54.5533 22.144C54.0493 22.144 53.5813 22.06 53.1493 21.892C52.7253 21.716 52.3573 21.452 52.0452 21.1C51.7333 20.748 51.4893 20.3 51.3133 19.756C51.1453 19.204 51.0613 18.552 51.0613 17.8C51.0613 17.016 51.1573 16.352 51.3493 15.808C51.5413 15.256 51.8013 14.808 52.1293 14.464C52.4573 14.112 52.8373 13.856 53.2693 13.696C53.7093 13.536 54.1773 13.456 54.6733 13.456C54.9453 13.456 55.1813 13.468 55.3813 13.492C55.5813 13.508 55.7573 13.536 55.9093 13.576C56.0613 13.608 56.1933 13.652 56.3053 13.708C56.4253 13.764 56.5413 13.828 56.6533 13.9H56.6653V15.796H55.7773V14.512ZM60.4166 18.112H59.4926V22H58.4966V13.6H59.4926V17.344H60.3926L63.0926 13.6H64.2446L61.2806 17.596L64.6166 22H63.3566L60.4166 18.112Z" fill="white"/>
</svg>
