<svg width="40" height="40" viewBox="0 0 40 40" fill="none" xmlns="http://www.w3.org/2000/svg">
<rect x="3" y="1" width="36" height="36" rx="18" fill="#FF6F42"/>
<g clip-path="url(#clip0_568_49011)">
<path d="M14.0903 27.3974C14.575 27.8821 15.3022 27.8262 16.1287 27.4595L30.9635 20.8283C31.3426 20.6605 31.6471 20.4803 31.8584 20.269C32.2997 19.8277 32.2997 19.2684 31.8522 18.8209C31.6471 18.6159 31.3426 18.4232 30.9635 18.2554L16.0604 11.6056C15.3208 11.2762 14.5813 11.2078 14.0965 11.6926C13.5061 12.283 13.7236 12.948 14.1462 13.7435L16.3835 17.9447C16.6819 18.5164 16.9429 18.765 17.5333 18.7837L30.8703 19.2933C31.0381 19.2995 31.1313 19.4176 31.1375 19.5481C31.1437 19.6786 31.0318 19.7905 30.8765 19.7967L17.5395 20.3311C16.9864 20.3622 16.6881 20.6108 16.3835 21.1764L14.1835 25.2906C13.736 26.1109 13.4937 26.8008 14.0903 27.3974Z" fill="white"/>
</g>
<defs>
<clipPath id="clip0_568_49011">
<rect width="28" height="28" fill="white" transform="translate(19.8008) rotate(45)"/>
</clipPath>
</defs>
</svg>
