<svg width="87" height="95" viewBox="0 0 87 95" fill="none" xmlns="http://www.w3.org/2000/svg">
<rect width="87" height="95" fill="#5A3F92"/>
<rect x="47" y="36" width="6" height="21" transform="rotate(-180 47 36)" fill="white"/>
<path fill-rule="evenodd" clip-rule="evenodd" d="M37 24.8027C25.507 27.7008 17 38.1068 17 50.4997C17 65.1353 28.8645 76.9997 43.5 76.9997C58.1355 76.9997 70 65.1353 70 50.4997C70 38.469 61.983 28.3108 51 25.076V31.415C58.612 34.4088 64 41.825 64 50.4997C64 61.8216 54.8218 70.9997 43.5 70.9997C32.1782 70.9997 23 61.8216 23 50.4997C23 41.4498 28.8642 33.7696 37 31.0516V24.8027Z" fill="white"/>
</svg>
