<svg width="87" height="35" viewBox="0 0 87 35" fill="none" xmlns="http://www.w3.org/2000/svg">
<path d="M0 17.5C0 7.83502 7.83502 0 17.5 0H69.5C79.165 0 87 7.83502 87 17.5V17.5C87 27.165 79.165 35 69.5 35H17.5C7.83502 35 0 27.165 0 17.5V17.5Z" fill="#5A3F92"/>
<path d="M26.46 13.6C26.764 13.56 27.08 13.536 27.408 13.528C27.744 13.512 28.028 13.504 28.26 13.504C28.988 13.504 29.596 13.608 30.084 13.816C30.58 14.024 30.976 14.316 31.272 14.692C31.576 15.06 31.792 15.504 31.92 16.024C32.056 16.544 32.124 17.116 32.124 17.74C32.124 18.308 32.064 18.856 31.944 19.384C31.824 19.904 31.616 20.368 31.32 20.776C31.024 21.176 30.624 21.5 30.12 21.748C29.624 21.988 29 22.108 28.248 22.108C28.144 22.108 28.008 22.104 27.84 22.096C27.672 22.096 27.5 22.088 27.324 22.072C27.148 22.064 26.98 22.056 26.82 22.048C26.66 22.04 26.54 22.028 26.46 22.012V13.6ZM28.308 14.392C28.196 14.392 28.052 14.396 27.876 14.404C27.708 14.412 27.568 14.428 27.456 14.452V21.172C27.496 21.18 27.552 21.188 27.624 21.196C27.704 21.196 27.784 21.2 27.864 21.208C27.944 21.208 28.02 21.212 28.092 21.22C28.172 21.22 28.236 21.22 28.284 21.22C28.868 21.22 29.34 21.124 29.7 20.932C30.068 20.74 30.352 20.484 30.552 20.164C30.752 19.836 30.888 19.464 30.96 19.048C31.032 18.624 31.068 18.188 31.068 17.74C31.068 17.348 31.036 16.956 30.972 16.564C30.908 16.164 30.776 15.804 30.576 15.484C30.384 15.164 30.104 14.904 29.736 14.704C29.376 14.496 28.9 14.392 28.308 14.392ZM33.9793 13.6H38.9113V14.488H34.9753V17.236H38.6113V18.124H34.9753V21.112H38.9713V22H33.9793V13.6ZM45.3866 14.512C45.2506 14.456 45.0986 14.416 44.9306 14.392C44.7706 14.36 44.5746 14.344 44.3426 14.344C44.0146 14.344 43.6906 14.404 43.3706 14.524C43.0586 14.644 42.7786 14.84 42.5306 15.112C42.2906 15.384 42.0946 15.74 41.9426 16.18C41.7986 16.62 41.7266 17.16 41.7266 17.8C41.7266 18.376 41.7906 18.88 41.9186 19.312C42.0546 19.744 42.2386 20.104 42.4706 20.392C42.7106 20.68 42.9946 20.896 43.3226 21.04C43.6586 21.184 44.0306 21.256 44.4386 21.256C44.6466 21.256 44.8386 21.24 45.0146 21.208C45.1986 21.168 45.3666 21.116 45.5186 21.052V19.852H46.4066V21.472L46.4186 21.496C46.1786 21.68 45.8746 21.836 45.5066 21.964C45.1386 22.084 44.6906 22.144 44.1626 22.144C43.6586 22.144 43.1906 22.06 42.7586 21.892C42.3346 21.716 41.9666 21.452 41.6546 21.1C41.3426 20.748 41.0986 20.3 40.9226 19.756C40.7546 19.204 40.6706 18.552 40.6706 17.8C40.6706 17.016 40.7666 16.352 40.9586 15.808C41.1506 15.256 41.4106 14.808 41.7386 14.464C42.0666 14.112 42.4466 13.856 42.8786 13.696C43.3186 13.536 43.7866 13.456 44.2826 13.456C44.5546 13.456 44.7906 13.468 44.9906 13.492C45.1906 13.508 45.3666 13.536 45.5186 13.576C45.6706 13.608 45.8026 13.652 45.9146 13.708C46.0346 13.764 46.1506 13.828 46.2626 13.9H46.2746V15.796H45.3866V14.512ZM52.2579 19.672H49.0299L48.2619 22H47.2779L50.0859 13.6H51.2619L54.0939 22H53.0499L52.2579 19.672ZM49.3419 18.808H51.9819L50.7459 14.86H50.6019L49.3419 18.808ZM57.3893 18.784L54.3893 13.6H55.5533L57.9533 17.752H57.9653L60.3053 13.6H61.3733L58.3853 18.772V22H57.3893V18.784Z" fill="white"/>
</svg>
