<svg width="45" height="40" viewBox="0 0 45 40" fill="none" xmlns="http://www.w3.org/2000/svg">
<path d="M0.000244141 40L44.625 40L44.625 0L0.000244141 0L0.000244141 40Z" fill="#F9FAFF"/>
<path fill-rule="evenodd" clip-rule="evenodd" d="M39.4723 26.3538C39.4347 26.2966 39.3972 26.2386 39.358 26.1821C38.2064 24.4025 37.537 22.2801 37.537 20.0017C37.537 17.7233 38.2064 15.6009 39.358 13.8213C39.3972 13.7648 39.4347 13.7068 39.4723 13.6487L39.4943 13.6158V13.6142C40.2646 12.4001 40.7109 10.9585 40.7109 9.41345C40.7109 5.08169 37.2059 1.57031 32.882 1.57031C31.3404 1.57031 29.9031 2.01659 28.6912 2.78757H28.6872C26.8694 4.02522 24.6757 4.74835 22.3129 4.74835C19.9502 4.74835 17.7565 4.02522 15.9387 2.78757H15.9347C14.7228 2.01659 13.2854 1.57031 11.7439 1.57031C7.42004 1.57031 3.91504 5.08169 3.91504 9.41345C3.91504 10.9578 4.3605 12.3978 5.13009 13.6119V13.615C5.14731 13.6409 5.16375 13.666 5.18098 13.6911C5.19976 13.7209 5.21933 13.7499 5.2389 13.7789C6.40776 15.5672 7.08731 17.7044 7.08731 20.0009C7.08731 22.368 6.36549 24.5656 5.13009 26.3868V26.3915C4.3605 27.6056 3.91504 29.0456 3.91504 30.5899C3.91504 34.9217 7.42004 38.4331 11.7439 38.4331C13.4107 38.4331 14.9553 37.9115 16.2252 37.0221C17.9843 35.8997 20.0731 35.2495 22.3129 35.2495C24.5528 35.2495 26.6415 35.8997 28.4007 37.0221C29.6705 37.9115 31.2152 38.4331 32.882 38.4331C37.2059 38.4331 40.7109 34.9217 40.7109 30.5899C40.7109 29.0448 40.2646 27.6033 39.4943 26.3891V26.3876L39.4723 26.3538Z" fill="#5A3F92"/>
</svg>
