<svg width="117" height="35" viewBox="0 0 117 35" fill="none" xmlns="http://www.w3.org/2000/svg">
<ellipse cx="17.3899" cy="17.5" rx="17.3899" ry="17.5" fill="#5A3F92"/>
<ellipse cx="37.264" cy="17.5" rx="17.3899" ry="17.5" fill="#5A3F92"/>
<ellipse cx="59.1253" cy="17.5" rx="17.3899" ry="17.5" fill="#5A3F92"/>
<ellipse cx="79.9935" cy="17.5" rx="17.3899" ry="17.5" fill="#5A3F92"/>
<ellipse cx="98.8743" cy="17.5" rx="17.3899" ry="17.5" fill="#5A3F92"/>
<path d="M23.9098 18.148H20.1418V22H19.1458V13.6H20.1418V17.26H23.9098V13.6H24.9058V22H23.9098V18.148ZM30.7931 19.672H27.5651L26.7971 22H25.8131L28.6211 13.6H29.7971L32.6291 22H31.5851L30.7931 19.672ZM27.8771 18.808H30.5171L29.2811 14.86H29.1371L27.8771 18.808ZM34.0164 13.684C34.3204 13.628 34.6684 13.584 35.0604 13.552C35.4604 13.52 35.8244 13.504 36.1524 13.504C36.5204 13.504 36.8684 13.544 37.1964 13.624C37.5324 13.704 37.8244 13.836 38.0724 14.02C38.3284 14.204 38.5324 14.444 38.6844 14.74C38.8364 15.036 38.9124 15.396 38.9124 15.82C38.9124 16.148 38.8564 16.44 38.7444 16.696C38.6404 16.944 38.5084 17.16 38.3484 17.344C38.1964 17.52 38.0364 17.664 37.8684 17.776C37.7004 17.888 37.5564 17.968 37.4364 18.016L39.6564 22H38.4924L36.5124 18.304H35.0124V22H34.0164V13.684ZM36.1764 14.368C36.0724 14.368 35.9644 14.368 35.8524 14.368C35.7404 14.368 35.6324 14.372 35.5284 14.38C35.4244 14.388 35.3244 14.396 35.2284 14.404C35.1404 14.412 35.0684 14.424 35.0124 14.44V17.536H35.9484C36.5004 17.536 36.9564 17.4 37.3164 17.128C37.6764 16.856 37.8564 16.432 37.8564 15.856C37.8564 15.424 37.7084 15.068 37.4124 14.788C37.1164 14.508 36.7044 14.368 36.1764 14.368ZM45.4957 16.42L45.6157 15.28H45.5557L44.9797 16.312L43.7557 18.364H43.4557L42.1717 16.3L41.6197 15.28H41.5597L41.7037 16.408V22H40.7317V13.6H41.6557L43.6477 16.792H43.6717L45.5917 13.6H46.4917V22H45.4957V16.42ZM47.783 17.8C47.783 16.408 48.027 15.336 48.515 14.584C49.011 13.832 49.771 13.456 50.795 13.456C51.355 13.456 51.827 13.56 52.211 13.768C52.603 13.976 52.919 14.272 53.159 14.656C53.399 15.032 53.571 15.488 53.675 16.024C53.779 16.552 53.831 17.144 53.831 17.8C53.831 19.192 53.583 20.264 53.087 21.016C52.599 21.768 51.835 22.144 50.795 22.144C50.243 22.144 49.775 22.04 49.391 21.832C49.007 21.624 48.695 21.332 48.455 20.956C48.215 20.572 48.043 20.116 47.939 19.588C47.835 19.052 47.783 18.456 47.783 17.8ZM48.839 17.8C48.839 18.264 48.867 18.704 48.923 19.12C48.987 19.536 49.095 19.904 49.247 20.224C49.399 20.536 49.599 20.788 49.847 20.98C50.095 21.164 50.411 21.256 50.795 21.256C51.483 21.256 51.983 20.976 52.295 20.416C52.615 19.856 52.775 18.984 52.775 17.8C52.775 17.344 52.743 16.908 52.679 16.492C52.623 16.068 52.519 15.7 52.367 15.388C52.215 15.068 52.011 14.816 51.755 14.632C51.499 14.44 51.179 14.344 50.795 14.344C50.115 14.344 49.619 14.628 49.307 15.196C48.995 15.756 48.839 16.624 48.839 17.8ZM56.7543 16.744L56.1063 15.532H56.0583L56.1783 16.744V22H55.2423V13.6H55.8903L59.2743 18.832L59.8983 19.984H59.9583L59.8263 18.832V13.6H60.7623V22H60.1143L56.7543 16.744ZM62.3177 13.6H68.0777V14.488H65.6897V21.112H68.0777V22H62.3177V21.112H64.6937V14.488H62.3177V13.6ZM74.289 14.512C74.153 14.456 74.001 14.416 73.833 14.392C73.673 14.36 73.477 14.344 73.245 14.344C72.917 14.344 72.593 14.404 72.273 14.524C71.961 14.644 71.681 14.84 71.433 15.112C71.193 15.384 70.997 15.74 70.845 16.18C70.701 16.62 70.629 17.16 70.629 17.8C70.629 18.376 70.693 18.88 70.821 19.312C70.957 19.744 71.141 20.104 71.373 20.392C71.613 20.68 71.897 20.896 72.225 21.04C72.561 21.184 72.933 21.256 73.341 21.256C73.549 21.256 73.741 21.24 73.917 21.208C74.101 21.168 74.269 21.116 74.421 21.052V19.852H75.309V21.472L75.321 21.496C75.081 21.68 74.777 21.836 74.409 21.964C74.041 22.084 73.593 22.144 73.065 22.144C72.561 22.144 72.093 22.06 71.661 21.892C71.237 21.716 70.869 21.452 70.557 21.1C70.245 20.748 70.001 20.3 69.825 19.756C69.657 19.204 69.573 18.552 69.573 17.8C69.573 17.016 69.669 16.352 69.861 15.808C70.053 15.256 70.313 14.808 70.641 14.464C70.969 14.112 71.349 13.856 71.781 13.696C72.221 13.536 72.689 13.456 73.185 13.456C73.457 13.456 73.693 13.468 73.893 13.492C74.093 13.508 74.269 13.536 74.421 13.576C74.573 13.608 74.705 13.652 74.817 13.708C74.937 13.764 75.053 13.828 75.165 13.9H75.177V15.796H74.289V14.512ZM76.7083 13.6H82.4683V14.488H80.0803V21.112H82.4683V22H76.7083V21.112H79.0843V14.488H76.7083V13.6ZM83.6636 13.6H89.9036V15.796H89.0156V14.488H87.2756V21.112H88.5956V22H84.9596V21.112H86.2796V14.488H84.5516V15.796H83.6636V13.6ZM93.4869 18.784L90.4869 13.6H91.6509L94.0509 17.752H94.0629L96.4029 13.6H97.4709L94.4829 18.772V22H93.4869V18.784Z" fill="white"/>
</svg>
