<svg width="1440" height="74" viewBox="0 0 1440 74" fill="none" xmlns="http://www.w3.org/2000/svg">
<g filter="url(#filter0_b_38_25999)">
<rect width="1440" height="74" fill="#F7F7F7"/>
<path d="M66.5902 39.989V44.4067H64V30.2227H68.8273C71.1198 30.2227 72.7773 30.6279 73.7998 31.4384C74.8357 32.235 75.3541 33.4311 75.3541 35.025C75.3541 36.6863 74.8013 37.9291 73.6966 38.7536C72.5919 39.578 70.9688 39.9899 68.8282 39.9899L66.5902 39.989ZM66.5902 32.5533V37.6592H69.0144C70.2298 37.6592 71.1416 37.4566 71.7489 37.0513C72.3562 36.6321 72.6607 35.9365 72.6607 34.9643C72.6607 34.0866 72.3772 33.4647 71.811 33.1005C71.2448 32.7354 70.3263 32.5533 69.0555 32.5533H66.5902Z" fill="#263740"/>
<path d="M80.7925 42.0769H88.6656V44.4067H78.2031V30.2227H80.7934L80.7925 42.0769Z" fill="#263740"/>
<path d="M104.387 44.4067H101.631L100.243 41.0432H93.5932L92.2259 44.4067H89.5938L95.478 30.2227H98.4205L104.387 44.4067ZM99.2904 38.7126L96.9081 32.897L94.5251 38.7126H99.2904V38.7126Z" fill="#263740"/>
<path d="M115.642 32.5525H110.752V44.4059H108.162V32.5525H103.355V30.2227H115.642V32.5525Z" fill="#263740"/>
<path d="M127.496 38.875H120.41V44.4067H117.82V30.2227H127.827V32.5525H120.41V36.5444H127.496V38.875Z" fill="#263740"/>
<path d="M129.41 37.2946C129.41 36.2274 129.59 35.2478 129.95 34.3569C130.322 33.4652 130.847 32.6957 131.524 32.0468C132.201 31.3987 133.015 30.8983 133.968 30.5472C134.922 30.1821 135.992 30 137.18 30C138.34 30 139.397 30.169 140.35 30.5062C141.317 30.8442 142.138 31.3298 142.815 31.9648C143.492 32.5866 144.017 33.3495 144.39 34.2544C144.763 35.1592 144.949 36.1863 144.949 37.334C144.949 38.4013 144.763 39.3808 144.39 40.2726C144.031 41.1643 143.513 41.9338 142.836 42.5827C142.159 43.2308 141.337 43.7378 140.371 44.1028C139.417 44.4539 138.354 44.6295 137.18 44.6295C136.02 44.6295 134.956 44.4671 133.989 44.143C133.036 43.805 132.221 43.3259 131.544 42.7041C130.868 42.0691 130.343 41.2996 129.97 40.394C129.597 39.4768 129.41 38.4431 129.41 37.2946ZM132.146 37.3152C132.146 38.0043 132.249 38.6523 132.456 39.2602C132.677 39.8681 133.002 40.3948 133.43 40.8411C133.858 41.2865 134.383 41.645 135.004 41.9149C135.64 42.1717 136.372 42.2997 137.201 42.2997C137.974 42.2997 138.665 42.1782 139.273 41.9346C139.894 41.6918 140.419 41.3538 140.847 40.9215C141.289 40.4891 141.627 39.969 141.862 39.3611C142.097 38.7401 142.215 38.0576 142.215 37.3143C142.215 36.6252 142.104 35.9771 141.883 35.3693C141.676 34.7614 141.358 34.2347 140.93 33.7884C140.502 33.343 139.97 32.991 139.335 32.7351C138.713 32.4652 137.988 32.3298 137.159 32.3298C136.386 32.3298 135.688 32.4512 135.066 32.6949C134.445 32.9377 133.914 33.2823 133.472 33.7285C133.043 34.1609 132.712 34.681 132.477 35.2889C132.256 35.8967 132.146 36.5719 132.146 37.3152Z" fill="#263740"/>
<path d="M153.528 39.9283C153.114 39.9685 152.685 39.989 152.243 39.989H150.254V44.4067H147.664V30.2227H152.243C154.536 30.2227 156.194 30.6279 157.215 31.4384C158.251 32.235 158.77 33.4311 158.77 35.025C158.77 37.1326 157.858 38.578 156.034 39.3615L159.744 44.4067H156.636L153.528 39.9283ZM150.254 32.5533V37.6592H152.429C153.645 37.6592 154.556 37.4566 155.165 37.0513C155.772 36.6321 156.076 35.9365 156.076 34.9643C156.076 34.0866 155.793 33.4647 155.227 33.1005C154.66 32.7362 153.742 32.5533 152.471 32.5533H150.254V32.5533Z" fill="#263740"/>
<path d="M175.572 33.7486L170.91 41.286H169.605L164.839 33.8495V44.4067H162.25V30.2227H165.523L170.33 37.9431L175.095 30.2227H178.161V44.4067H175.572V33.7486V33.7486Z" fill="#263740"/>
<path d="M191.545 44.4067L185.578 30.2227H188.355L192.871 41.286L197.367 30.2227H199.998L194.114 44.4067H191.545Z" fill="#263740"/>
<path d="M581.196 42L579.196 42L579.196 30.8L581.196 30.8L581.196 35.504L582.876 35.504L586.476 30.8L588.908 30.8L584.636 36.128L589.596 42L587.036 42L582.972 37.152L581.196 37.152L581.196 42ZM594.068 42.176C593.439 42.176 592.873 42.0907 592.372 41.92C591.871 41.7387 591.439 41.472 591.076 41.12C590.713 40.768 590.436 40.3307 590.244 39.808C590.052 39.2853 589.956 38.672 589.956 37.968C589.956 37.2747 590.057 36.672 590.26 36.16C590.463 35.6373 590.745 35.2053 591.108 34.864C591.471 34.512 591.908 34.2507 592.42 34.08C592.932 33.9093 593.503 33.824 594.132 33.824C594.751 33.824 595.311 33.9147 595.812 34.096C596.324 34.2773 596.756 34.544 597.108 34.896C597.471 35.248 597.748 35.6853 597.94 36.208C598.132 36.7307 598.228 37.3387 598.228 38.032C598.228 38.7253 598.127 39.3333 597.924 39.856C597.721 40.368 597.439 40.7947 597.076 41.136C596.713 41.4773 596.276 41.7387 595.764 41.92C595.252 42.0907 594.687 42.176 594.068 42.176ZM591.86 38.016C591.86 38.9013 592.057 39.5467 592.452 39.952C592.847 40.3467 593.396 40.544 594.1 40.544C594.815 40.544 595.364 40.3413 595.748 39.936C596.132 39.52 596.324 38.8853 596.324 38.032L596.324 37.984C596.324 37.0987 596.121 36.4587 595.716 36.064C595.321 35.6587 594.772 35.456 594.068 35.456C593.353 35.4667 592.804 35.68 592.42 36.096C592.047 36.5013 591.86 37.1253 591.86 37.968L591.86 38.016ZM605.393 38.768L601.777 38.768L601.777 42L599.905 42L599.905 34L601.777 34L601.777 37.12L605.393 37.12L605.393 34L607.265 34L607.265 42L605.393 42L605.393 38.768ZM615.85 41.2C615.669 41.424 615.343 41.6427 614.874 41.856C614.405 42.0693 613.845 42.176 613.194 42.176C612.554 42.176 611.973 42.0907 611.45 41.92C610.927 41.7387 610.479 41.472 610.106 41.12C609.733 40.768 609.445 40.3307 609.242 39.808C609.039 39.2853 608.938 38.672 608.938 37.968C608.938 37.2853 609.039 36.688 609.242 36.176C609.455 35.6533 609.749 35.2213 610.122 34.88C610.495 34.528 610.943 34.2667 611.466 34.096C611.989 33.9147 612.57 33.824 613.21 33.824C613.754 33.8347 614.25 33.9093 614.698 34.048C615.146 34.1867 615.503 34.3573 615.77 34.56L615.77 36.896C615.493 36.4693 615.141 36.128 614.714 35.872C614.298 35.6053 613.797 35.4667 613.21 35.456C612.442 35.456 611.855 35.6587 611.45 36.064C611.045 36.4693 610.842 37.0773 610.842 37.888L610.842 38.128C610.842 38.96 611.05 39.5733 611.466 39.968C611.893 40.352 612.485 40.544 613.242 40.544C613.914 40.544 614.463 40.4213 614.89 40.176C615.327 39.9307 615.647 39.632 615.85 39.28L615.85 41.2ZM619.508 35.648L616.948 35.648L616.948 34L623.956 34L623.956 35.648L621.364 35.648L621.364 42L619.508 42L619.508 35.648ZM625.449 34L627.209 34L627.209 35.664C627.283 35.44 627.39 35.2213 627.529 35.008C627.678 34.784 627.865 34.5867 628.089 34.416C628.323 34.2453 628.601 34.1067 628.921 34C629.241 33.8933 629.614 33.84 630.041 33.84C630.553 33.84 631.017 33.92 631.433 34.08C631.859 34.2293 632.222 34.464 632.521 34.784C632.83 35.104 633.07 35.5147 633.241 36.016C633.411 36.5173 633.497 37.12 633.497 37.824C633.497 38.6133 633.411 39.2853 633.241 39.84C633.07 40.384 632.825 40.832 632.505 41.184C632.195 41.5253 631.817 41.776 631.369 41.936C630.921 42.096 630.425 42.176 629.881 42.176C629.241 42.176 628.702 42.0373 628.265 41.76C627.838 41.4827 627.523 41.1573 627.321 40.784L627.321 45.088L625.449 45.088L625.449 34ZM627.321 38.272C627.321 38.9973 627.513 39.5573 627.897 39.952C628.281 40.336 628.803 40.528 629.465 40.528C630.222 40.528 630.771 40.3307 631.113 39.936C631.454 39.5307 631.625 38.8533 631.625 37.904C631.625 37.0293 631.427 36.4107 631.033 36.048C630.649 35.6853 630.137 35.504 629.497 35.504C628.761 35.504 628.217 35.696 627.865 36.08C627.523 36.464 627.342 36.992 627.321 37.664L627.321 38.272ZM633.94 34L636.036 34L638.228 39.488L640.02 34L642.004 34L638.804 42.848C638.623 43.328 638.441 43.7173 638.26 44.016C638.079 44.3253 637.887 44.5653 637.684 44.736C637.492 44.9173 637.284 45.04 637.06 45.104C636.836 45.168 636.591 45.2 636.324 45.2C636.079 45.2 635.833 45.168 635.588 45.104C635.343 45.04 635.161 44.9547 635.044 44.848L635.044 43.104C635.161 43.2213 635.305 43.3173 635.476 43.392C635.647 43.4667 635.823 43.504 636.004 43.504C636.292 43.504 636.543 43.392 636.756 43.168C636.98 42.9547 637.167 42.576 637.316 42.032L633.94 34ZM643.181 34L645.053 34L645.053 37.12L646.349 37.12L648.589 34L650.669 34L647.869 37.776L651.117 42L648.845 42L646.333 38.688L645.053 38.688L645.053 42L643.181 42L643.181 34ZM654.3 35.648L651.74 35.648L651.74 34L658.748 34L658.748 35.648L656.156 35.648L656.156 42L654.3 42L654.3 35.648ZM663.809 42.176C663.18 42.176 662.614 42.0907 662.113 41.92C661.612 41.7387 661.18 41.472 660.817 41.12C660.454 40.768 660.177 40.3307 659.985 39.808C659.793 39.2853 659.697 38.672 659.697 37.968C659.697 37.2747 659.798 36.672 660.001 36.16C660.204 35.6373 660.486 35.2053 660.849 34.864C661.212 34.512 661.649 34.2507 662.161 34.08C662.673 33.9093 663.244 33.824 663.873 33.824C664.492 33.824 665.052 33.9147 665.553 34.096C666.065 34.2773 666.497 34.544 666.849 34.896C667.212 35.248 667.489 35.6853 667.681 36.208C667.873 36.7307 667.969 37.3387 667.969 38.032C667.969 38.7253 667.868 39.3333 667.665 39.856C667.462 40.368 667.18 40.7947 666.817 41.136C666.454 41.4773 666.017 41.7387 665.505 41.92C664.993 42.0907 664.428 42.176 663.809 42.176ZM661.601 38.016C661.601 38.9013 661.798 39.5467 662.193 39.952C662.588 40.3467 663.137 40.544 663.841 40.544C664.556 40.544 665.105 40.3413 665.489 39.936C665.873 39.52 666.065 38.8853 666.065 38.032L666.065 37.984C666.065 37.0987 665.862 36.4587 665.457 36.064C665.062 35.6587 664.513 35.456 663.809 35.456C663.094 35.4667 662.545 35.68 662.161 36.096C661.788 36.5013 661.601 37.1253 661.601 37.968L661.601 38.016ZM669.646 34L671.406 34L671.406 35.664C671.481 35.44 671.587 35.2213 671.726 35.008C671.875 34.784 672.062 34.5867 672.286 34.416C672.521 34.2453 672.798 34.1067 673.118 34C673.438 33.8933 673.811 33.84 674.238 33.84C674.75 33.84 675.214 33.92 675.63 34.08C676.057 34.2293 676.419 34.464 676.718 34.784C677.027 35.104 677.267 35.5147 677.438 36.016C677.609 36.5173 677.694 37.12 677.694 37.824C677.694 38.6133 677.609 39.2853 677.438 39.84C677.267 40.384 677.022 40.832 676.702 41.184C676.393 41.5253 676.014 41.776 675.566 41.936C675.118 42.096 674.622 42.176 674.078 42.176C673.438 42.176 672.899 42.0373 672.462 41.76C672.035 41.4827 671.721 41.1573 671.518 40.784L671.518 45.088L669.646 45.088L669.646 34ZM671.518 38.272C671.518 38.9973 671.71 39.5573 672.094 39.952C672.478 40.336 673.001 40.528 673.662 40.528C674.419 40.528 674.969 40.3307 675.31 39.936C675.651 39.5307 675.822 38.8533 675.822 37.904C675.822 37.0293 675.625 36.4107 675.23 36.048C674.846 35.6853 674.334 35.504 673.694 35.504C672.958 35.504 672.414 35.696 672.062 36.08C671.721 36.464 671.539 36.992 671.518 37.664L671.518 38.272Z" fill="#263740"/>
<path d="M728.254 32.64L724.478 32.64L724.478 42L722.478 42L722.478 32.64L718.766 32.64L718.766 30.8L728.254 30.8L728.254 32.64ZM731.964 42.176C731.334 42.176 730.769 42.0907 730.268 41.92C729.766 41.7387 729.334 41.472 728.972 41.12C728.609 40.768 728.332 40.3307 728.14 39.808C727.948 39.2853 727.852 38.672 727.852 37.968C727.852 37.2747 727.953 36.672 728.156 36.16C728.358 35.6373 728.641 35.2053 729.004 34.864C729.366 34.512 729.804 34.2507 730.316 34.08C730.828 33.9093 731.398 33.824 732.028 33.824C732.646 33.824 733.206 33.9147 733.708 34.096C734.22 34.2773 734.652 34.544 735.004 34.896C735.366 35.248 735.644 35.6853 735.836 36.208C736.028 36.7307 736.124 37.3387 736.124 38.032C736.124 38.7253 736.022 39.3333 735.82 39.856C735.617 40.368 735.334 40.7947 734.972 41.136C734.609 41.4773 734.172 41.7387 733.66 41.92C733.148 42.0907 732.582 42.176 731.964 42.176ZM729.756 38.016C729.756 38.9013 729.953 39.5467 730.348 39.952C730.742 40.3467 731.292 40.544 731.996 40.544C732.71 40.544 733.26 40.3413 733.644 39.936C734.028 39.52 734.22 38.8853 734.22 38.032L734.22 37.984C734.22 37.0987 734.017 36.4587 733.612 36.064C733.217 35.6587 732.668 35.456 731.964 35.456C731.249 35.4667 730.7 35.68 730.316 36.096C729.942 36.5013 729.756 37.1253 729.756 37.968L729.756 38.016ZM737.801 34L741.833 34C742.793 34 743.475 34.16 743.881 34.48C744.286 34.7893 744.489 35.248 744.489 35.856C744.489 36.336 744.366 36.736 744.121 37.056C743.886 37.3653 743.55 37.5733 743.113 37.68C743.369 37.712 743.603 37.7707 743.817 37.856C744.041 37.9307 744.227 38.0427 744.377 38.192C744.537 38.3413 744.659 38.5333 744.745 38.768C744.841 39.0027 744.889 39.2907 744.889 39.632C744.889 40.4 744.633 40.9867 744.121 41.392C743.619 41.7973 742.841 42 741.785 42L737.801 42L737.801 34ZM741.609 40.448C742.11 40.448 742.473 40.3733 742.697 40.224C742.921 40.064 743.033 39.824 743.033 39.504C743.033 39.152 742.921 38.912 742.697 38.784C742.483 38.6453 742.158 38.576 741.721 38.576L739.673 38.576L739.673 40.448L741.609 40.448ZM741.385 37.232C741.758 37.232 742.057 37.168 742.281 37.04C742.505 36.9013 742.617 36.6613 742.617 36.32C742.617 36.0213 742.515 35.8187 742.313 35.712C742.11 35.6053 741.806 35.552 741.401 35.552L739.673 35.568L739.673 37.232L741.385 37.232ZM746.742 34.56C747.008 34.3573 747.376 34.1867 747.846 34.048C748.326 33.9093 748.912 33.84 749.606 33.84C750.779 33.84 751.654 34.0587 752.23 34.496C752.806 34.9333 753.094 35.6747 753.094 36.72L753.094 42L751.334 42L751.334 40.56C751.142 41.0293 750.811 41.408 750.342 41.696C749.883 41.984 749.334 42.128 748.694 42.128C747.883 42.128 747.248 41.9147 746.79 41.488C746.342 41.0507 746.118 40.4373 746.118 39.648C746.118 39.1893 746.198 38.8107 746.358 38.512C746.518 38.2133 746.742 37.9787 747.03 37.808C747.318 37.6267 747.664 37.4987 748.07 37.424C748.475 37.3493 748.923 37.312 749.414 37.312L751.222 37.312L751.222 36.96C751.222 36.3947 751.083 36.0053 750.806 35.792C750.539 35.5787 750.139 35.472 749.606 35.472C748.87 35.472 748.278 35.6053 747.83 35.872C747.382 36.128 747.019 36.4693 746.742 36.896L746.742 34.56ZM749.286 40.448C749.606 40.448 749.878 40.4107 750.102 40.336C750.336 40.2507 750.534 40.1493 750.694 40.032C750.854 39.904 750.976 39.7653 751.062 39.616C751.147 39.4667 751.2 39.3227 751.222 39.184L751.222 38.528L749.638 38.528C749.083 38.528 748.672 38.592 748.406 38.72C748.139 38.848 748.006 39.0933 748.006 39.456C748.006 39.7653 748.112 40.0107 748.326 40.192C748.55 40.3627 748.87 40.448 749.286 40.448ZM755.205 34L756.965 34L756.965 35.664C757.039 35.44 757.146 35.2213 757.285 35.008C757.434 34.784 757.621 34.5867 757.845 34.416C758.079 34.2453 758.357 34.1067 758.677 34C758.997 33.8933 759.37 33.84 759.797 33.84C760.309 33.84 760.773 33.92 761.189 34.08C761.615 34.2293 761.978 34.464 762.277 34.784C762.586 35.104 762.826 35.5147 762.997 36.016C763.167 36.5173 763.253 37.12 763.253 37.824C763.253 38.6133 763.167 39.2853 762.997 39.84C762.826 40.384 762.581 40.832 762.261 41.184C761.951 41.5253 761.573 41.776 761.125 41.936C760.677 42.096 760.181 42.176 759.637 42.176C758.997 42.176 758.458 42.0373 758.021 41.76C757.594 41.4827 757.279 41.1573 757.077 40.784L757.077 45.088L755.205 45.088L755.205 34ZM757.077 38.272C757.077 38.9973 757.269 39.5573 757.653 39.952C758.037 40.336 758.559 40.528 759.221 40.528C759.978 40.528 760.527 40.3307 760.869 39.936C761.21 39.5307 761.381 38.8533 761.381 37.904C761.381 37.0293 761.183 36.4107 760.789 36.048C760.405 35.6853 759.893 35.504 759.253 35.504C758.517 35.504 757.973 35.696 757.621 36.08C757.279 36.464 757.098 36.992 757.077 37.664L757.077 38.272ZM764.907 34L766.779 34L766.779 36.368L768.155 36.368C768.699 36.368 769.179 36.4107 769.595 36.496C770.021 36.5813 770.373 36.7307 770.651 36.944C770.939 37.1467 771.157 37.424 771.307 37.776C771.456 38.128 771.531 38.5653 771.531 39.088C771.52 40.112 771.232 40.8533 770.667 41.312C770.101 41.7707 769.195 42 767.947 42L764.907 42L764.907 34ZM772.443 34L774.315 34L774.315 42L772.443 42L772.443 34ZM767.883 40.352C768.523 40.352 768.976 40.2613 769.243 40.08C769.509 39.8987 769.648 39.568 769.659 39.088C769.648 38.6613 769.525 38.3787 769.291 38.24C769.056 38.0907 768.629 38.016 768.011 38.016L766.779 38.016L766.779 40.352L767.883 40.352Z" fill="#263740"/>
<path d="M824.731 32.64L819.131 32.64L819.131 42L817.131 42L817.131 30.8L824.731 30.8L824.731 32.64ZM825.158 34.56C825.425 34.3573 825.793 34.1867 826.262 34.048C826.742 33.9093 827.329 33.84 828.022 33.84C829.196 33.84 830.07 34.0587 830.646 34.496C831.222 34.9333 831.51 35.6747 831.51 36.72L831.51 42L829.75 42L829.75 40.56C829.558 41.0293 829.228 41.408 828.758 41.696C828.3 41.984 827.75 42.128 827.11 42.128C826.3 42.128 825.665 41.9147 825.206 41.488C824.758 41.0507 824.534 40.4373 824.534 39.648C824.534 39.1893 824.614 38.8107 824.774 38.512C824.934 38.2133 825.158 37.9787 825.446 37.808C825.734 37.6267 826.081 37.4987 826.486 37.424C826.892 37.3493 827.34 37.312 827.83 37.312L829.638 37.312L829.638 36.96C829.638 36.3947 829.5 36.0053 829.222 35.792C828.956 35.5787 828.556 35.472 828.022 35.472C827.286 35.472 826.694 35.6053 826.246 35.872C825.798 36.128 825.436 36.4693 825.158 36.896L825.158 34.56ZM827.702 40.448C828.022 40.448 828.294 40.4107 828.518 40.336C828.753 40.2507 828.95 40.1493 829.11 40.032C829.27 39.904 829.393 39.7653 829.478 39.616C829.564 39.4667 829.617 39.3227 829.638 39.184L829.638 38.528L828.054 38.528C827.5 38.528 827.089 38.592 826.822 38.72C826.556 38.848 826.422 39.0933 826.422 39.456C826.422 39.7653 826.529 40.0107 826.742 40.192C826.966 40.3627 827.286 40.448 827.702 40.448ZM838.805 35.648L836.213 35.648L836.165 36.656C836.112 37.904 836 38.8907 835.829 39.616C835.669 40.3413 835.467 40.8907 835.221 41.264C834.976 41.6267 834.704 41.856 834.405 41.952C834.107 42.048 833.803 42.096 833.493 42.096C833.344 42.096 833.195 42.0853 833.045 42.064C832.907 42.0533 832.795 42.0373 832.709 42.016L832.709 40.08C832.837 40.1227 832.976 40.144 833.125 40.144C833.296 40.144 833.456 40.112 833.605 40.048C833.765 39.9733 833.904 39.792 834.021 39.504C834.139 39.216 834.235 38.7787 834.309 38.192C834.395 37.6053 834.453 36.7893 834.485 35.744L834.549 34L840.661 34L840.661 42L838.805 42L838.805 35.648ZM849.51 41.2C849.414 41.3173 849.275 41.4347 849.094 41.552C848.912 41.6587 848.694 41.76 848.438 41.856C848.182 41.952 847.894 42.0267 847.574 42.08C847.264 42.1333 846.928 42.16 846.566 42.16C845.232 42.1707 844.198 41.824 843.462 41.12C842.726 40.4053 842.358 39.3547 842.358 37.968C842.358 37.3067 842.454 36.72 842.646 36.208C842.848 35.6853 843.131 35.248 843.494 34.896C843.856 34.544 844.283 34.2773 844.774 34.096C845.275 33.9147 845.83 33.824 846.438 33.824C847.6 33.8347 848.507 34.1813 849.158 34.864C849.819 35.5467 850.15 36.5173 850.15 37.776L850.15 38.544L844.214 38.544C844.363 39.8773 845.168 40.544 846.63 40.544C847.366 40.544 847.974 40.4213 848.454 40.176C848.944 39.9307 849.296 39.632 849.51 39.28L849.51 41.2ZM846.39 35.456C845.782 35.456 845.296 35.6053 844.934 35.904C844.571 36.2027 844.342 36.64 844.246 37.216L848.278 37.216C848.256 36.672 848.08 36.2453 847.75 35.936C847.419 35.616 846.966 35.456 846.39 35.456ZM851.822 34L853.582 34L853.582 35.664C853.657 35.44 853.764 35.2213 853.902 35.008C854.052 34.784 854.238 34.5867 854.462 34.416C854.697 34.2453 854.974 34.1067 855.294 34C855.614 33.8933 855.988 33.84 856.414 33.84C856.926 33.84 857.39 33.92 857.806 34.08C858.233 34.2293 858.596 34.464 858.894 34.784C859.204 35.104 859.444 35.5147 859.614 36.016C859.785 36.5173 859.87 37.12 859.87 37.824C859.87 38.6133 859.785 39.2853 859.614 39.84C859.444 40.384 859.198 40.832 858.878 41.184C858.569 41.5253 858.19 41.776 857.742 41.936C857.294 42.096 856.798 42.176 856.254 42.176C855.614 42.176 855.076 42.0373 854.638 41.76C854.212 41.4827 853.897 41.1573 853.694 40.784L853.694 45.088L851.822 45.088L851.822 34ZM853.694 38.272C853.694 38.9973 853.886 39.5573 854.27 39.952C854.654 40.336 855.177 40.528 855.838 40.528C856.596 40.528 857.145 40.3307 857.486 39.936C857.828 39.5307 857.998 38.8533 857.998 37.904C857.998 37.0293 857.801 36.4107 857.406 36.048C857.022 35.6853 856.51 35.504 855.87 35.504C855.134 35.504 854.59 35.696 854.238 36.08C853.897 36.464 853.716 36.992 853.694 37.664L853.694 38.272ZM868.132 41.2C868.036 41.3173 867.898 41.4347 867.716 41.552C867.535 41.6587 867.316 41.76 867.06 41.856C866.804 41.952 866.516 42.0267 866.196 42.08C865.887 42.1333 865.551 42.16 865.188 42.16C863.855 42.1707 862.82 41.824 862.084 41.12C861.348 40.4053 860.98 39.3547 860.98 37.968C860.98 37.3067 861.076 36.72 861.268 36.208C861.471 35.6853 861.754 35.248 862.116 34.896C862.479 34.544 862.906 34.2773 863.396 34.096C863.898 33.9147 864.452 33.824 865.06 33.824C866.223 33.8347 867.13 34.1813 867.78 34.864C868.442 35.5467 868.772 36.5173 868.772 37.776L868.772 38.544L862.836 38.544C862.986 39.8773 863.791 40.544 865.252 40.544C865.988 40.544 866.596 40.4213 867.076 40.176C867.567 39.9307 867.919 39.632 868.132 39.28L868.132 41.2ZM865.012 35.456C864.404 35.456 863.919 35.6053 863.556 35.904C863.194 36.2027 862.964 36.64 862.868 37.216L866.9 37.216C866.879 36.672 866.703 36.2453 866.372 35.936C866.042 35.616 865.588 35.456 865.012 35.456ZM875.309 39.36L873.453 39.36L871.837 42L869.773 42L871.629 39.104C871.149 38.912 870.786 38.6293 870.541 38.256C870.296 37.872 870.173 37.4187 870.173 36.896C870.173 35.8933 870.461 35.1627 871.037 34.704C871.613 34.2347 872.525 34 873.773 34L877.181 34L877.181 42L875.309 42L875.309 39.36ZM873.821 35.648C873.192 35.648 872.738 35.7387 872.461 35.92C872.184 36.1013 872.045 36.4267 872.045 36.896C872.056 37.2267 872.173 37.4827 872.397 37.664C872.621 37.8347 872.978 37.92 873.469 37.92L875.309 37.92L875.309 35.648L873.821 35.648Z" fill="#263740"/>
<path fill-rule="evenodd" clip-rule="evenodd" d="M1272.55 27C1271.11 27 1270.17 27.1725 1269.1 27.6962C1268.71 27.8901 1268.34 28.1236 1267.99 28.396C1267.66 28.1389 1267.3 27.9161 1266.92 27.7283C1265.83 27.1888 1264.85 27 1263.45 27C1259.72 27 1257 30.0979 1257 34.1212C1257 37.1597 1258.69 40.0948 1261.85 42.933C1263.5 44.4227 1265.62 45.897 1267.13 46.6813L1268 47.13L1268.87 46.6813C1270.38 45.897 1272.5 44.4227 1274.15 42.933C1277.31 40.0948 1279 37.1597 1279 34.1212C1279 30.1404 1276.26 27.0154 1272.55 27ZM1277 34.1218C1277 36.5023 1275.59 38.9522 1272.81 41.4462C1271.3 42.806 1269.36 44.1648 1268 44.8777C1266.64 44.1648 1264.7 42.806 1263.19 41.4462C1260.41 38.9522 1259 36.5023 1259 34.1218C1259 31.1491 1260.88 29.001 1263.46 29.001C1264.56 29.001 1265.25 29.1326 1266.04 29.5219C1266.5 29.7519 1266.91 30.0556 1267.27 30.435L1268 31.2201L1268.73 30.4288C1269.1 30.0341 1269.51 29.7236 1269.98 29.4935C1270.75 29.1195 1271.39 29.001 1272.55 29.001C1275.09 29.0115 1277 31.1904 1277 34.1218Z" fill="#263740"/>
<path fill-rule="evenodd" clip-rule="evenodd" d="M1307.1 33.9609H1309.2C1309.2 34.3254 1309.41 34.6762 1309.78 34.8503C1310.3 35.0959 1310.93 34.8968 1311.19 34.4056L1311.42 33.9609H1319.58L1319.81 34.4056C1320.07 34.8968 1320.7 35.0959 1321.22 34.8503C1321.59 34.6762 1321.8 34.3254 1321.8 33.9609H1323.9V35.9497H1307.1V33.9609ZM1320.88 31.9717H1323.9C1325.06 31.9717 1326 32.8621 1326 33.9604V35.9492C1326 36.7849 1325.46 37.5002 1324.68 37.7945C1324.69 37.8409 1324.69 37.8878 1324.69 37.935C1324.69 38.0801 1324.67 38.2248 1324.64 38.3665L1323.01 45.3271C1322.79 46.237 1321.94 46.8844 1320.96 46.8844H1310.04C1309.06 46.8844 1308.2 46.237 1307.99 45.3271L1306.36 38.3665C1306.31 38.1735 1306.3 37.9809 1306.31 37.7933C1305.54 37.4983 1305 36.7838 1305 35.9492V33.9604C1305 32.8621 1305.94 31.9717 1307.1 31.9717H1310.13L1312.46 27.5499C1312.72 27.0587 1313.35 26.8596 1313.87 27.1052C1314.39 27.3508 1314.6 27.9481 1314.34 28.4393L1312.47 31.9717H1318.53L1316.66 28.4393C1316.4 27.9481 1316.61 27.3508 1317.13 27.1052C1317.65 26.8596 1318.28 27.0587 1318.54 27.5499L1320.88 31.9717ZM1322.59 37.9379H1308.41L1310.04 44.8923H1320.96L1322.59 37.9379Z" fill="#263740"/>
<path fill-rule="evenodd" clip-rule="evenodd" d="M1364 48C1357.92 48 1353 43.0751 1353 37C1353 30.9249 1357.92 26 1364 26C1370.08 26 1375 30.9249 1375 37C1375 43.0751 1370.08 48 1364 48ZM1371.4 42.1272C1372.41 40.6731 1373 38.9075 1373 37.0039C1373 32.0333 1368.97 28.0039 1364 28.0039C1359.03 28.0039 1355 32.0333 1355 37.0039C1355 38.9069 1355.59 40.672 1356.6 42.1258C1357.72 40.647 1360.34 40.0074 1363.94 40.0001C1361.73 39.9705 1360 38.3953 1360 35.0005C1360 32.7562 1361.58 31.0005 1364 31.0005C1366.41 31.0005 1368 32.9221 1368 35.2005C1368 38.4486 1366.25 39.9711 1364.06 40.0001C1367.66 40.0076 1370.28 40.6477 1371.4 42.1272ZM1369.96 43.7436C1369.68 42.689 1367.57 42 1364 42C1360.43 42 1358.32 42.6884 1358.03 43.7422C1359.62 45.1495 1361.71 46.0039 1364 46.0039C1366.29 46.0039 1368.38 45.15 1369.96 43.7436ZM1362 35C1362 37.2693 1362.82 38 1364 38C1365.18 38 1366 37.2984 1366 35.2C1366 33.9504 1365.22 33 1364 33C1362.73 33 1362 33.8158 1362 35Z" fill="#263740"/>
</g>
<defs>
<filter id="filter0_b_38_25999" x="-10" y="-10" width="1460" height="94" filterUnits="userSpaceOnUse" color-interpolation-filters="sRGB">
<feFlood flood-opacity="0" result="BackgroundImageFix"/>
<feGaussianBlur in="BackgroundImage" stdDeviation="5"/>
<feComposite in2="SourceAlpha" operator="in" result="effect1_backgroundBlur_38_25999"/>
<feBlend mode="normal" in="SourceGraphic" in2="effect1_backgroundBlur_38_25999" result="shape"/>
</filter>
</defs>
</svg>
