<svg width="117" height="35" viewBox="0 0 117 35" fill="none" xmlns="http://www.w3.org/2000/svg">
<ellipse cx="17.3899" cy="17.5" rx="17.3899" ry="17.5" fill="#5A3F92"/>
<ellipse cx="37.264" cy="17.5" rx="17.3899" ry="17.5" fill="#5A3F92"/>
<ellipse cx="59.1253" cy="17.5" rx="17.3899" ry="17.5" fill="#5A3F92"/>
<ellipse cx="79.9935" cy="17.5" rx="17.3899" ry="17.5" fill="#5A3F92"/>
<ellipse cx="98.8743" cy="17.5" rx="17.3899" ry="17.5" fill="#5A3F92"/>
<path d="M41.2117 13.684C41.5157 13.612 41.8437 13.564 42.1957 13.54C42.5477 13.516 42.8957 13.504 43.2397 13.504C43.6077 13.504 43.9797 13.54 44.3557 13.612C44.7397 13.684 45.0877 13.816 45.3997 14.008C45.7117 14.2 45.9637 14.464 46.1557 14.8C46.3557 15.136 46.4557 15.564 46.4557 16.084C46.4557 16.596 46.3637 17.028 46.1797 17.38C45.9957 17.732 45.7517 18.02 45.4477 18.244C45.1437 18.46 44.7957 18.616 44.4037 18.712C44.0117 18.808 43.6077 18.856 43.1917 18.856C43.1517 18.856 43.0837 18.856 42.9877 18.856C42.8997 18.856 42.8037 18.856 42.6997 18.856C42.6037 18.848 42.5077 18.84 42.4117 18.832C42.3157 18.824 42.2477 18.816 42.2077 18.808V22H41.2117V13.684ZM43.2637 14.368C43.0557 14.368 42.8557 14.372 42.6637 14.38C42.4717 14.388 42.3197 14.408 42.2077 14.44V17.92C42.2477 17.936 42.3117 17.948 42.3997 17.956C42.4877 17.956 42.5797 17.96 42.6757 17.968C42.7717 17.968 42.8637 17.968 42.9517 17.968C43.0397 17.968 43.1037 17.968 43.1437 17.968C43.4157 17.968 43.6837 17.944 43.9477 17.896C44.2197 17.84 44.4637 17.744 44.6797 17.608C44.8957 17.472 45.0677 17.28 45.1957 17.032C45.3317 16.784 45.3997 16.468 45.3997 16.084C45.3997 15.756 45.3357 15.484 45.2077 15.268C45.0877 15.044 44.9237 14.868 44.7157 14.74C44.5157 14.604 44.2877 14.508 44.0317 14.452C43.7757 14.396 43.5197 14.368 43.2637 14.368ZM52.691 18.148H48.923V22H47.927V13.6H48.923V17.26H52.691V13.6H53.687V22H52.691V18.148ZM59.5743 19.672H56.3463L55.5783 22H54.5943L57.4023 13.6H58.5783L61.4103 22H60.3663L59.5743 19.672ZM56.6583 18.808H59.2983L58.0623 14.86H57.9183L56.6583 18.808ZM63.3977 20.812C63.6377 20.94 63.9057 21.048 64.2017 21.136C64.5057 21.216 64.8097 21.256 65.1137 21.256C65.3777 21.256 65.6257 21.232 65.8577 21.184C66.0897 21.128 66.2897 21.044 66.4577 20.932C66.6337 20.812 66.7697 20.664 66.8657 20.488C66.9697 20.312 67.0217 20.104 67.0217 19.864C67.0217 19.536 66.9097 19.268 66.6857 19.06C66.4697 18.852 66.1977 18.668 65.8697 18.508C65.5417 18.348 65.1857 18.192 64.8017 18.04C64.4177 17.888 64.0617 17.708 63.7337 17.5C63.4057 17.292 63.1297 17.04 62.9057 16.744C62.6897 16.44 62.5817 16.056 62.5817 15.592C62.5817 15.264 62.6457 14.968 62.7737 14.704C62.9097 14.44 63.0977 14.216 63.3377 14.032C63.5777 13.848 63.8657 13.708 64.2017 13.612C64.5457 13.508 64.9257 13.456 65.3417 13.456C65.8217 13.456 66.2577 13.492 66.6497 13.564C67.0417 13.628 67.3537 13.716 67.5857 13.828L67.6097 13.816V13.84H67.6217L67.6097 13.876V15.796H66.7217V14.512C66.5217 14.464 66.3017 14.424 66.0617 14.392C65.8217 14.36 65.5657 14.344 65.2937 14.344C65.0297 14.344 64.7897 14.376 64.5737 14.44C64.3657 14.504 64.1857 14.592 64.0337 14.704C63.8897 14.808 63.7777 14.932 63.6977 15.076C63.6177 15.22 63.5777 15.372 63.5777 15.532C63.5777 15.844 63.6857 16.104 63.9017 16.312C64.1257 16.52 64.4017 16.708 64.7297 16.876C65.0577 17.036 65.4137 17.196 65.7977 17.356C66.1817 17.516 66.5377 17.704 66.8657 17.92C67.1937 18.128 67.4657 18.38 67.6817 18.676C67.9057 18.972 68.0177 19.34 68.0177 19.78C68.0177 20.14 67.9497 20.464 67.8137 20.752C67.6857 21.04 67.4977 21.288 67.2497 21.496C67.0097 21.704 66.7097 21.864 66.3497 21.976C65.9977 22.088 65.5977 22.144 65.1497 22.144C64.8457 22.144 64.5577 22.12 64.2857 22.072C64.0137 22.024 63.7617 21.964 63.5297 21.892C63.3057 21.82 63.1017 21.744 62.9177 21.664C62.7417 21.584 62.6017 21.516 62.4977 21.46L62.5097 21.424V19.48H63.3977V20.812ZM70.077 13.6H75.009V14.488H71.073V17.236H74.709V18.124H71.073V21.112H75.069V22H70.077V13.6Z" fill="white"/>
</svg>
