<svg width="117" height="35" viewBox="0 0 117 35" fill="none" xmlns="http://www.w3.org/2000/svg">
<ellipse cx="17.3899" cy="17.5" rx="17.3899" ry="17.5" fill="#5A3F92"/>
<ellipse cx="37.264" cy="17.5" rx="17.3899" ry="17.5" fill="#5A3F92"/>
<ellipse cx="59.1253" cy="17.5" rx="17.3899" ry="17.5" fill="#5A3F92"/>
<ellipse cx="79.9935" cy="17.5" rx="17.3899" ry="17.5" fill="#5A3F92"/>
<ellipse cx="98.8743" cy="17.5" rx="17.3899" ry="17.5" fill="#5A3F92"/>
<path d="M23.2234 13.684C23.5274 13.612 23.8554 13.564 24.2074 13.54C24.5594 13.516 24.9074 13.504 25.2514 13.504C25.6194 13.504 25.9914 13.54 26.3674 13.612C26.7514 13.684 27.0994 13.816 27.4114 14.008C27.7234 14.2 27.9754 14.464 28.1674 14.8C28.3674 15.136 28.4674 15.564 28.4674 16.084C28.4674 16.596 28.3754 17.028 28.1914 17.38C28.0074 17.732 27.7634 18.02 27.4594 18.244C27.1554 18.46 26.8074 18.616 26.4154 18.712C26.0234 18.808 25.6194 18.856 25.2034 18.856C25.1634 18.856 25.0954 18.856 24.9994 18.856C24.9114 18.856 24.8154 18.856 24.7114 18.856C24.6154 18.848 24.5194 18.84 24.4234 18.832C24.3274 18.824 24.2594 18.816 24.2194 18.808V22H23.2234V13.684ZM25.2754 14.368C25.0674 14.368 24.8674 14.372 24.6754 14.38C24.4834 14.388 24.3314 14.408 24.2194 14.44V17.92C24.2594 17.936 24.3234 17.948 24.4114 17.956C24.4994 17.956 24.5914 17.96 24.6874 17.968C24.7834 17.968 24.8754 17.968 24.9634 17.968C25.0514 17.968 25.1154 17.968 25.1554 17.968C25.4274 17.968 25.6954 17.944 25.9594 17.896C26.2314 17.84 26.4754 17.744 26.6914 17.608C26.9074 17.472 27.0794 17.28 27.2074 17.032C27.3434 16.784 27.4114 16.468 27.4114 16.084C27.4114 15.756 27.3474 15.484 27.2194 15.268C27.0994 15.044 26.9354 14.868 26.7274 14.74C26.5274 14.604 26.2994 14.508 26.0434 14.452C25.7874 14.396 25.5314 14.368 25.2754 14.368ZM29.7948 17.8C29.7948 16.408 30.0388 15.336 30.5268 14.584C31.0228 13.832 31.7828 13.456 32.8068 13.456C33.3668 13.456 33.8388 13.56 34.2228 13.768C34.6148 13.976 34.9308 14.272 35.1708 14.656C35.4108 15.032 35.5828 15.488 35.6868 16.024C35.7908 16.552 35.8428 17.144 35.8428 17.8C35.8428 19.192 35.5948 20.264 35.0988 21.016C34.6108 21.768 33.8468 22.144 32.8068 22.144C32.2548 22.144 31.7868 22.04 31.4028 21.832C31.0188 21.624 30.7068 21.332 30.4668 20.956C30.2268 20.572 30.0548 20.116 29.9508 19.588C29.8468 19.052 29.7948 18.456 29.7948 17.8ZM30.8508 17.8C30.8508 18.264 30.8788 18.704 30.9348 19.12C30.9988 19.536 31.1068 19.904 31.2588 20.224C31.4108 20.536 31.6108 20.788 31.8588 20.98C32.1068 21.164 32.4228 21.256 32.8068 21.256C33.4948 21.256 33.9948 20.976 34.3068 20.416C34.6268 19.856 34.7868 18.984 34.7868 17.8C34.7868 17.344 34.7548 16.908 34.6908 16.492C34.6348 16.068 34.5308 15.7 34.3788 15.388C34.2268 15.068 34.0228 14.816 33.7668 14.632C33.5108 14.44 33.1908 14.344 32.8068 14.344C32.1268 14.344 31.6308 14.628 31.3188 15.196C31.0068 15.756 30.8508 16.624 30.8508 17.8ZM37.6141 13.684C37.9181 13.628 38.2661 13.584 38.6581 13.552C39.0581 13.52 39.4221 13.504 39.7501 13.504C40.1181 13.504 40.4661 13.544 40.7941 13.624C41.1301 13.704 41.4221 13.836 41.6701 14.02C41.9261 14.204 42.1301 14.444 42.2821 14.74C42.4341 15.036 42.5101 15.396 42.5101 15.82C42.5101 16.148 42.4541 16.44 42.3421 16.696C42.2381 16.944 42.1061 17.16 41.9461 17.344C41.7941 17.52 41.6341 17.664 41.4661 17.776C41.2981 17.888 41.1541 17.968 41.0341 18.016L43.2541 22H42.0901L40.1101 18.304H38.6101V22H37.6141V13.684ZM39.7741 14.368C39.6701 14.368 39.5621 14.368 39.4501 14.368C39.3381 14.368 39.2301 14.372 39.1261 14.38C39.0221 14.388 38.9221 14.396 38.8261 14.404C38.7381 14.412 38.6661 14.424 38.6101 14.44V17.536H39.5461C40.0981 17.536 40.5541 17.4 40.9141 17.128C41.2741 16.856 41.4541 16.432 41.4541 15.856C41.4541 15.424 41.3061 15.068 41.0101 14.788C40.7141 14.508 40.3021 14.368 39.7741 14.368ZM44.0894 13.6H50.3294V15.796H49.4414V14.488H47.7014V21.112H49.0214V22H45.3854V21.112H46.7054V14.488H44.9774V15.796H44.0894V13.6ZM55.9767 19.672H52.7487L51.9807 22H50.9967L53.8047 13.6H54.9807L57.8127 22H56.7687L55.9767 19.672ZM53.0607 18.808H55.7007L54.4647 14.86H54.3207L53.0607 18.808ZM63.484 16.42L63.604 15.28H63.544L62.968 16.312L61.744 18.364H61.444L60.16 16.3L59.608 15.28H59.548L59.692 16.408V22H58.72V13.6H59.644L61.636 16.792H61.66L63.58 13.6H64.48V22H63.484V16.42ZM66.4793 13.6H71.4113V14.488H67.4753V17.236H71.1113V18.124H67.4753V21.112H71.4713V22H66.4793V13.6ZM74.7426 16.744L74.0946 15.532H74.0466L74.1666 16.744V22H73.2306V13.6H73.8786L77.2626 18.832L77.8866 19.984H77.9466L77.8146 18.832V13.6H78.7506V22H78.1026L74.7426 16.744ZM80.0659 13.6H86.3059V15.796H85.4179V14.488H83.6779V21.112H84.9979V22H81.3619V21.112H82.6819V14.488H80.9539V15.796H80.0659V13.6ZM87.3573 17.8C87.3573 16.408 87.6013 15.336 88.0893 14.584C88.5853 13.832 89.3453 13.456 90.3693 13.456C90.9293 13.456 91.4013 13.56 91.7853 13.768C92.1773 13.976 92.4933 14.272 92.7333 14.656C92.9733 15.032 93.1453 15.488 93.2493 16.024C93.3533 16.552 93.4053 17.144 93.4053 17.8C93.4053 19.192 93.1573 20.264 92.6613 21.016C92.1733 21.768 91.4093 22.144 90.3693 22.144C89.8173 22.144 89.3493 22.04 88.9653 21.832C88.5813 21.624 88.2693 21.332 88.0293 20.956C87.7893 20.572 87.6173 20.116 87.5133 19.588C87.4093 19.052 87.3573 18.456 87.3573 17.8ZM88.4133 17.8C88.4133 18.264 88.4413 18.704 88.4973 19.12C88.5613 19.536 88.6693 19.904 88.8213 20.224C88.9733 20.536 89.1733 20.788 89.4213 20.98C89.6693 21.164 89.9853 21.256 90.3693 21.256C91.0573 21.256 91.5573 20.976 91.8693 20.416C92.1893 19.856 92.3493 18.984 92.3493 17.8C92.3493 17.344 92.3173 16.908 92.2533 16.492C92.1973 16.068 92.0933 15.7 91.9413 15.388C91.7893 15.068 91.5853 14.816 91.3293 14.632C91.0733 14.44 90.7533 14.344 90.3693 14.344C89.6893 14.344 89.1933 14.628 88.8813 15.196C88.5693 15.756 88.4133 16.624 88.4133 17.8Z" fill="white"/>
</svg>
