<svg width="24" height="24" viewBox="0 0 24 24" fill="none" xmlns="http://www.w3.org/2000/svg">
<path d="M8.65 8C8.65 6.14985 10.1498 4.65 12 4.65C13.8502 4.65 15.35 6.14985 15.35 8C15.35 9.85015 13.8502 11.35 12 11.35C10.1498 11.35 8.65 9.85015 8.65 8Z" stroke="#94ACB8" stroke-width="1.3"/>
<path d="M3.65 16C3.65 14.1498 5.14985 12.65 7 12.65C8.85015 12.65 10.35 14.1498 10.35 16C10.35 17.8502 8.85015 19.35 7 19.35C5.14985 19.35 3.65 17.8502 3.65 16Z" stroke="#94ACB8" stroke-width="1.3"/>
<path d="M13.65 16C13.65 14.1498 15.1498 12.65 17 12.65C18.8502 12.65 20.35 14.1498 20.35 16C20.35 17.8502 18.8502 19.35 17 19.35C15.1498 19.35 13.65 17.8502 13.65 16Z" stroke="#94ACB8" stroke-width="1.3"/>
</svg>
