<svg width="64" height="64" viewBox="0 0 64 64" fill="none" xmlns="http://www.w3.org/2000/svg">
<path d="M0 32C0 14.3269 14.3269 0 32 0V0C49.6731 0 64 14.3269 64 32V32C64 49.6731 49.6731 64 32 64V64C14.3269 64 0 49.6731 0 32V32Z" fill="#1890FF"/>
<path d="M31.9971 50.354V50.354H31.9996L46.1117 50.3547L46.1143 50.3547C47.2625 50.3258 48.2663 49.89 49.0952 49.0618L49.0953 49.0617C49.8904 48.2659 50.3361 47.2997 50.4231 46.1386L50.4234 46.1386V46.1311L50.4234 31.8421L50.4234 31.8396C50.3945 30.6921 49.958 29.6875 49.1305 28.8593L49.1304 28.8593C48.3252 28.0547 47.3459 27.6319 46.2032 27.6017V27.6016H46.2005H36.3282V17.8878H36.3282L36.3281 17.8853C36.2993 16.7371 35.8634 15.7332 35.0345 14.905C34.2285 14.0998 33.2485 13.6769 32.1071 13.6481V13.648H32.1046H17.8867V13.648L17.8843 13.6481C16.736 13.6762 15.7314 14.1121 14.9032 14.9403L14.9032 14.9403C14.1094 15.7348 13.6638 16.701 13.5761 17.8627L13.5758 17.8626L13.5758 17.8702L13.5793 32.2121H13.5788L13.5798 32.222C13.6921 33.3456 14.162 34.3289 14.9744 35.1427L14.9745 35.1428C15.7797 35.9473 16.7597 36.3708 17.9018 36.3997L17.9018 36.3997H17.9044H27.6711L27.6745 46.1657L27.6741 46.1657L27.675 46.1756C27.7866 47.2978 28.2566 48.2818 29.0696 49.0969L29.0697 49.097C29.8749 49.9016 30.8549 50.3251 31.9971 50.354Z" fill="white" stroke="white" stroke-width="0.2"/>
<path d="M24.9529 26.7841C24.4596 26.7841 24.0367 26.6079 23.6843 26.2556C23.3552 25.9264 23.191 25.5156 23.191 25.0222C23.191 24.5289 23.3552 24.106 23.6843 23.7537C24.0367 23.4252 24.4596 23.2603 24.9529 23.2603C25.4462 23.2603 25.8571 23.4245 26.1862 23.7537C26.5386 24.106 26.7148 24.5289 26.7148 25.0222C26.7148 25.5156 26.5386 25.9264 26.1862 26.2556C25.8571 26.6079 25.4462 26.7841 24.9529 26.7841ZM30.2386 17.9746C30.732 17.9746 31.1428 18.1388 31.472 18.4679C31.8243 18.8203 32.0005 19.2432 32.0005 19.7365C32.0005 20.2298 31.8243 20.6407 31.472 20.9698C31.1428 21.3222 30.732 21.4984 30.2386 21.4984C29.7453 21.4984 29.3224 21.3222 28.97 20.9698C28.6409 20.6407 28.4767 20.2298 28.4767 19.7365C28.4767 19.2432 28.6409 18.8203 28.97 18.4679C29.3224 18.1388 29.7453 17.9746 30.2386 17.9746ZM20.9005 31.5413C20.5714 31.8937 20.1605 32.0698 19.6672 32.0698C19.1738 32.0698 18.751 31.8937 18.3986 31.5413C18.0695 31.2121 17.9053 30.8013 17.9053 30.3079C17.9053 29.8146 18.0695 29.3917 18.3986 29.0394C18.751 28.7109 19.1738 28.546 19.6672 28.546C20.1605 28.546 20.5714 28.7102 20.9005 29.0394C21.2529 29.3917 21.4291 29.8146 21.4291 30.3079C21.4291 30.8013 21.2529 31.2121 20.9005 31.5413Z" fill="#1890FF"/>
<path d="M45.5667 32.4235C45.919 32.7758 46.0952 33.1987 46.0952 33.692C46.0952 34.1847 45.919 34.5962 45.5667 34.9254C45.2375 35.2777 44.8267 35.4539 44.3333 35.4539C43.84 35.4539 43.4171 35.2777 43.0648 34.9254C42.7349 34.5969 42.5714 34.1854 42.5714 33.692C42.5714 33.1987 42.7349 32.7751 43.0648 32.4228C43.4171 32.0936 43.84 31.9287 44.3333 31.9287C44.8267 31.9287 45.2375 32.095 45.5667 32.4235ZM45.5667 37.7092C45.919 38.0616 46.0952 38.4844 46.0952 38.9777C46.0952 39.4704 45.919 39.882 45.5667 40.2111C45.2375 40.5635 44.8267 40.7396 44.3333 40.7396C43.84 40.7396 43.4171 40.5635 43.0648 40.2111C42.7349 39.8827 42.5714 39.4711 42.5714 38.9777C42.5714 38.4844 42.7349 38.0608 43.0648 37.7085C43.4171 37.3793 43.84 37.2158 44.3333 37.2158C44.8267 37.2158 45.2375 37.3808 45.5667 37.7092ZM43.0648 42.9949C43.4171 42.6665 43.84 42.5023 44.3333 42.5023C44.8267 42.5023 45.2375 42.6665 45.5667 42.9949C45.919 43.3473 46.0952 43.7701 46.0952 44.2635C46.0952 44.7561 45.919 45.1677 45.5667 45.4968C45.2375 45.8492 44.8267 46.0254 44.3333 46.0254C43.84 46.0254 43.4171 45.8492 43.0648 45.4968C42.7349 45.1684 42.5714 44.7568 42.5714 44.2635C42.5714 43.7701 42.7349 43.3473 43.0648 42.9949ZM35.5238 33.692C35.5238 34.1847 35.3476 34.5962 34.9952 34.9254C34.6661 35.2777 34.2552 35.4539 33.7619 35.4539C33.2686 35.4539 32.8457 35.2777 32.4933 34.9254C32.1642 34.5969 32 34.1854 32 33.692C32 33.1987 32.1642 32.7751 32.4933 32.4228C32.8457 32.0936 33.2686 31.9287 33.7619 31.9287C34.2552 31.9287 34.6661 32.0936 34.9952 32.4228C35.3476 32.7758 35.5238 33.1987 35.5238 33.692ZM32.4933 42.9949C32.8457 42.6665 33.2686 42.5023 33.7619 42.5023C34.2552 42.5023 34.6661 42.6665 34.9952 42.9949C35.3476 43.3473 35.5238 43.7701 35.5238 44.2635C35.5238 44.7561 35.3476 45.1677 34.9952 45.4968C34.6661 45.8492 34.2552 46.0254 33.7619 46.0254C33.2686 46.0254 32.8457 45.8492 32.4933 45.4968C32.1642 45.1684 32 44.7568 32 44.2635C32 43.7701 32.1642 43.3473 32.4933 42.9949ZM32 38.9777C32 38.4844 32.1642 38.0608 32.4933 37.7085C32.8457 37.3793 33.2686 37.2158 33.7619 37.2158C34.2552 37.2158 34.6661 37.3793 34.9952 37.7085C35.3476 38.0616 35.5238 38.4844 35.5238 38.9777C35.5238 39.4704 35.3476 39.882 34.9952 40.2111C34.6661 40.5635 34.2552 40.7396 33.7619 40.7396C33.2686 40.7396 32.8457 40.5635 32.4933 40.2111C32.1642 39.8827 32 39.4711 32 38.9777Z" fill="#1890FF"/>
</svg>
