<svg width="87" height="35" viewBox="0 0 87 35" fill="none" xmlns="http://www.w3.org/2000/svg">
<path d="M0 17.5C0 7.83502 7.83502 0 17.5 0H69.5C79.165 0 87 7.83502 87 17.5V17.5C87 27.165 79.165 35 69.5 35H17.5C7.83502 35 0 27.165 0 17.5V17.5Z" fill="#5A3F92"/>
<path d="M19.2 13.684C19.504 13.628 19.852 13.584 20.244 13.552C20.644 13.52 21.008 13.504 21.336 13.504C21.704 13.504 22.052 13.544 22.38 13.624C22.716 13.704 23.008 13.836 23.256 14.02C23.512 14.204 23.716 14.444 23.868 14.74C24.02 15.036 24.096 15.396 24.096 15.82C24.096 16.148 24.04 16.44 23.928 16.696C23.824 16.944 23.692 17.16 23.532 17.344C23.38 17.52 23.22 17.664 23.052 17.776C22.884 17.888 22.74 17.968 22.62 18.016L24.84 22H23.676L21.696 18.304H20.196V22H19.2V13.684ZM21.36 14.368C21.256 14.368 21.148 14.368 21.036 14.368C20.924 14.368 20.816 14.372 20.712 14.38C20.608 14.388 20.508 14.396 20.412 14.404C20.324 14.412 20.252 14.424 20.196 14.44V17.536H21.132C21.684 17.536 22.14 17.4 22.5 17.128C22.86 16.856 23.04 16.432 23.04 15.856C23.04 15.424 22.892 15.068 22.596 14.788C22.3 14.508 21.888 14.368 21.36 14.368ZM26.4793 13.6H31.4113V14.488H27.4753V17.236H31.1113V18.124H27.4753V21.112H31.4713V22H26.4793V13.6ZM33.4706 13.6H34.4666V21.112H37.8626V19.024H38.7506V22H33.4706V13.6ZM40.8699 13.6H45.8019V14.488H41.8659V17.236H45.5019V18.124H41.8659V21.112H45.8619V22H40.8699V13.6ZM51.9533 19.672H48.7253L47.9573 22H46.9733L49.7812 13.6H50.9573L53.7893 22H52.7453L51.9533 19.672ZM49.0373 18.808H51.6773L50.4413 14.86H50.2973L49.0373 18.808ZM55.7766 20.812C56.0166 20.94 56.2846 21.048 56.5806 21.136C56.8846 21.216 57.1886 21.256 57.4926 21.256C57.7566 21.256 58.0046 21.232 58.2366 21.184C58.4686 21.128 58.6686 21.044 58.8366 20.932C59.0126 20.812 59.1486 20.664 59.2446 20.488C59.3486 20.312 59.4006 20.104 59.4006 19.864C59.4006 19.536 59.2886 19.268 59.0646 19.06C58.8486 18.852 58.5766 18.668 58.2486 18.508C57.9206 18.348 57.5646 18.192 57.1806 18.04C56.7966 17.888 56.4406 17.708 56.1126 17.5C55.7846 17.292 55.5086 17.04 55.2846 16.744C55.0686 16.44 54.9606 16.056 54.9606 15.592C54.9606 15.264 55.0246 14.968 55.1526 14.704C55.2886 14.44 55.4766 14.216 55.7166 14.032C55.9566 13.848 56.2446 13.708 56.5806 13.612C56.9246 13.508 57.3046 13.456 57.7206 13.456C58.2006 13.456 58.6366 13.492 59.0286 13.564C59.4206 13.628 59.7326 13.716 59.9646 13.828L59.9886 13.816V13.84H60.0006L59.9886 13.876V15.796H59.1006V14.512C58.9006 14.464 58.6806 14.424 58.4406 14.392C58.2006 14.36 57.9446 14.344 57.6726 14.344C57.4086 14.344 57.1686 14.376 56.9526 14.44C56.7446 14.504 56.5646 14.592 56.4126 14.704C56.2686 14.808 56.1566 14.932 56.0766 15.076C55.9966 15.22 55.9566 15.372 55.9566 15.532C55.9566 15.844 56.0646 16.104 56.2806 16.312C56.5046 16.52 56.7806 16.708 57.1086 16.876C57.4366 17.036 57.7926 17.196 58.1766 17.356C58.5606 17.516 58.9166 17.704 59.2446 17.92C59.5726 18.128 59.8446 18.38 60.0606 18.676C60.2846 18.972 60.3966 19.34 60.3966 19.78C60.3966 20.14 60.3286 20.464 60.1926 20.752C60.0646 21.04 59.8766 21.288 59.6286 21.496C59.3886 21.704 59.0886 21.864 58.7286 21.976C58.3766 22.088 57.9766 22.144 57.5286 22.144C57.2246 22.144 56.9366 22.12 56.6646 22.072C56.3926 22.024 56.1406 21.964 55.9086 21.892C55.6846 21.82 55.4806 21.744 55.2966 21.664C55.1206 21.584 54.9806 21.516 54.8766 21.46L54.8886 21.424V19.48H55.7766V20.812ZM62.4559 13.6H67.3879V14.488H63.4519V17.236H67.0879V18.124H63.4519V21.112H67.4479V22H62.4559V13.6Z" fill="white"/>
</svg>
