<svg width="48" height="32" viewBox="0 0 48 32" fill="none" xmlns="http://www.w3.org/2000/svg">
<path fill-rule="evenodd" clip-rule="evenodd" d="M28.4297 12.58L19.5703 12.58C17.5019 12.58 15.8252 14.1112 15.8252 16C15.8252 17.8888 17.5019 19.42 19.5703 19.42L28.4297 19.42C30.4981 19.42 32.1748 17.8888 32.1748 16C32.1748 14.1112 30.4981 12.58 28.4297 12.58ZM13 16C13 19.3137 15.9416 22 19.5703 22L28.4297 22C32.0584 22 35 19.3137 35 16C35 12.6863 32.0584 10 28.4297 10L19.5703 10C15.9416 10 13 12.6863 13 16Z" fill="#595959"/>
</svg>
