<svg width="30" height="30" viewBox="0 0 30 30" fill="none" xmlns="http://www.w3.org/2000/svg">
<rect x="30" y="30" width="30" height="30" rx="15" transform="rotate(180 30 30)" fill="white"/>
<path d="M15.3418 19.7237C15.1369 19.8475 15.0712 20.114 15.195 20.3189C15.3187 20.5238 15.5852 20.5895 15.7901 20.4657L15.3418 19.7237ZM15.7901 9.53506C15.5852 9.41128 15.3187 9.47702 15.195 9.68191C15.0712 9.8868 15.1369 10.1532 15.3418 10.277L15.7901 9.53506ZM22.2083 13.9192L22.4325 13.5482L22.2083 13.9192ZM22.2083 16.0816L22.4325 16.4526L22.2083 16.0816ZM15.7901 20.4657L22.4325 16.4526L21.9842 15.7106L15.3418 19.7237L15.7901 20.4657ZM15.3418 10.277L21.9842 14.2901L22.4325 13.5482L15.7901 9.53506L15.3418 10.277ZM21.925 14.1851L21.925 15.8156L22.7918 15.8156L22.7918 14.1851L21.925 14.1851ZM21.9842 14.2901C21.9474 14.2679 21.925 14.2281 21.925 14.1851L22.7918 14.1851C22.7918 13.9245 22.6555 13.6829 22.4325 13.5482L21.9842 14.2901ZM22.4325 16.4526C22.6555 16.3178 22.7918 16.0762 22.7918 15.8156L21.925 15.8156C21.925 15.7727 21.9474 15.7328 21.9842 15.7106L22.4325 16.4526Z" fill="#0000C5"/>
<path d="M7.6416 15L21.2265 15" stroke="#0000C5" stroke-width="0.866873" stroke-linecap="round"/>
</svg>
