<svg width="30" height="30" viewBox="0 0 30 30" fill="none" xmlns="http://www.w3.org/2000/svg">
<path d="M30 15C30 23.2843 23.2843 30 15 30C6.71573 30 1.32024e-06 23.2843 5.96007e-07 15C-1.28227e-07 6.71573 6.71573 -1.77912e-06 15 -2.50336e-06C23.2843 -3.22759e-06 30 6.71573 30 15Z" fill="white"/>
<path fill-rule="evenodd" clip-rule="evenodd" d="M13.0623 22.8752C13.2964 22.5045 13.6334 21.9623 14.0465 21.2747C14.4319 20.633 14.8838 19.8643 15.3802 18.9897L15.5399 18.7085L15.8552 18.759C16.615 18.8807 17.4864 18.7505 18.4394 18.3226C20.4278 17.4292 22.8123 15.1141 25 10.3749L24.2157 10C22.0836 14.6098 19.8477 16.7339 18.1213 17.5097C17.3517 17.8555 16.6186 17.9515 15.9842 17.8665L16.3944 17.1637C16.6642 16.6671 16.9414 16.1479 17.2234 15.6086C18.3464 13.4616 18.1907 11.6696 17.2159 10.8285C16.7309 10.41 16.0941 10.2906 15.4683 10.4894C14.8478 10.6866 14.2589 11.1864 13.8 11.9682C12.7819 13.7033 12.7541 15.7778 13.6017 17.1985C13.8158 17.5574 14.0854 17.8722 14.4045 18.1253L14.7244 18.379L14.5208 18.7359C14.0761 19.5153 13.6701 20.2048 13.3196 20.7883C13.1049 21.1458 12.9111 21.4633 12.742 21.7372L12.3496 22.3727L7.0294 13.817H6L12.3321 24L13.0623 22.8752ZM15.7162 11.3594C16.0899 11.2406 16.425 11.3193 16.6713 11.5318C17.1535 11.9479 17.5219 13.1584 16.47 15.1697C16.1163 15.8459 15.7703 16.4902 15.4372 17.0976L15.1494 17.5947C14.9156 17.4078 14.565 17.051 14.33 16.7145C13.6077 15.6805 13.6602 13.9316 14.5317 12.4465C14.9063 11.8082 15.3401 11.4789 15.7162 11.3594Z" fill="#0000C5"/>
</svg>
