<svg width="87" height="35" viewBox="0 0 87 35" fill="none" xmlns="http://www.w3.org/2000/svg">
<path d="M0 17.5C0 7.83502 7.83502 0 17.5 0H69.5C79.165 0 87 7.83502 87 17.5V17.5C87 27.165 79.165 35 69.5 35H17.5C7.83502 35 0 27.165 0 17.5V17.5Z" fill="#5A3F92"/>
<path d="M19.8 20.812C20.04 20.94 20.308 21.048 20.604 21.136C20.908 21.216 21.212 21.256 21.516 21.256C21.78 21.256 22.028 21.232 22.26 21.184C22.492 21.128 22.692 21.044 22.86 20.932C23.036 20.812 23.172 20.664 23.268 20.488C23.372 20.312 23.424 20.104 23.424 19.864C23.424 19.536 23.312 19.268 23.088 19.06C22.872 18.852 22.6 18.668 22.272 18.508C21.944 18.348 21.588 18.192 21.204 18.04C20.82 17.888 20.464 17.708 20.136 17.5C19.808 17.292 19.532 17.04 19.308 16.744C19.092 16.44 18.984 16.056 18.984 15.592C18.984 15.264 19.048 14.968 19.176 14.704C19.312 14.44 19.5 14.216 19.74 14.032C19.98 13.848 20.268 13.708 20.604 13.612C20.948 13.508 21.328 13.456 21.744 13.456C22.224 13.456 22.66 13.492 23.052 13.564C23.444 13.628 23.756 13.716 23.988 13.828L24.012 13.816V13.84H24.024L24.012 13.876V15.796H23.124V14.512C22.924 14.464 22.704 14.424 22.464 14.392C22.224 14.36 21.968 14.344 21.696 14.344C21.432 14.344 21.192 14.376 20.976 14.44C20.768 14.504 20.588 14.592 20.436 14.704C20.292 14.808 20.18 14.932 20.1 15.076C20.02 15.22 19.98 15.372 19.98 15.532C19.98 15.844 20.088 16.104 20.304 16.312C20.528 16.52 20.804 16.708 21.132 16.876C21.46 17.036 21.816 17.196 22.2 17.356C22.584 17.516 22.94 17.704 23.268 17.92C23.596 18.128 23.868 18.38 24.084 18.676C24.308 18.972 24.42 19.34 24.42 19.78C24.42 20.14 24.352 20.464 24.216 20.752C24.088 21.04 23.9 21.288 23.652 21.496C23.412 21.704 23.112 21.864 22.752 21.976C22.4 22.088 22 22.144 21.552 22.144C21.248 22.144 20.96 22.12 20.688 22.072C20.416 22.024 20.164 21.964 19.932 21.892C19.708 21.82 19.504 21.744 19.32 21.664C19.144 21.584 19.004 21.516 18.9 21.46L18.912 21.424V19.48H19.8V20.812ZM30.7153 13.6H31.6753V19.204C31.6753 19.708 31.6073 20.144 31.4713 20.512C31.3433 20.88 31.1593 21.184 30.9193 21.424C30.6793 21.656 30.3873 21.828 30.0433 21.94C29.6993 22.052 29.3193 22.108 28.9033 22.108C27.9113 22.108 27.1633 21.884 26.6593 21.436C26.1633 20.988 25.9153 20.308 25.9153 19.396V13.6H26.9113V18.928C26.9113 19.352 26.9513 19.712 27.0313 20.008C27.1193 20.296 27.2433 20.532 27.4033 20.716C27.5713 20.892 27.7793 21.02 28.0273 21.1C28.2833 21.18 28.5793 21.22 28.9153 21.22C29.5633 21.22 30.0233 21.044 30.2953 20.692C30.5753 20.332 30.7153 19.744 30.7153 18.928V13.6ZM34.1906 20.812C34.4306 20.94 34.6986 21.048 34.9946 21.136C35.2986 21.216 35.6026 21.256 35.9066 21.256C36.1706 21.256 36.4186 21.232 36.6506 21.184C36.8826 21.128 37.0826 21.044 37.2506 20.932C37.4266 20.812 37.5626 20.664 37.6586 20.488C37.7626 20.312 37.8146 20.104 37.8146 19.864C37.8146 19.536 37.7026 19.268 37.4786 19.06C37.2626 18.852 36.9906 18.668 36.6626 18.508C36.3346 18.348 35.9786 18.192 35.5946 18.04C35.2106 17.888 34.8546 17.708 34.5266 17.5C34.1986 17.292 33.9226 17.04 33.6986 16.744C33.4826 16.44 33.3746 16.056 33.3746 15.592C33.3746 15.264 33.4386 14.968 33.5666 14.704C33.7026 14.44 33.8906 14.216 34.1306 14.032C34.3706 13.848 34.6586 13.708 34.9946 13.612C35.3386 13.508 35.7186 13.456 36.1346 13.456C36.6146 13.456 37.0506 13.492 37.4426 13.564C37.8346 13.628 38.1466 13.716 38.3786 13.828L38.4026 13.816V13.84H38.4146L38.4026 13.876V15.796H37.5146V14.512C37.3146 14.464 37.0946 14.424 36.8546 14.392C36.6146 14.36 36.3586 14.344 36.0866 14.344C35.8226 14.344 35.5826 14.376 35.3666 14.44C35.1586 14.504 34.9786 14.592 34.8266 14.704C34.6826 14.808 34.5706 14.932 34.4906 15.076C34.4106 15.22 34.3706 15.372 34.3706 15.532C34.3706 15.844 34.4786 16.104 34.6946 16.312C34.9186 16.52 35.1946 16.708 35.5226 16.876C35.8506 17.036 36.2066 17.196 36.5906 17.356C36.9746 17.516 37.3306 17.704 37.6586 17.92C37.9866 18.128 38.2586 18.38 38.4746 18.676C38.6986 18.972 38.8106 19.34 38.8106 19.78C38.8106 20.14 38.7426 20.464 38.6066 20.752C38.4786 21.04 38.2906 21.288 38.0426 21.496C37.8026 21.704 37.5026 21.864 37.1426 21.976C36.7906 22.088 36.3906 22.144 35.9426 22.144C35.6386 22.144 35.3506 22.12 35.0786 22.072C34.8066 22.024 34.5546 21.964 34.3226 21.892C34.0986 21.82 33.8946 21.744 33.7106 21.664C33.5346 21.584 33.3946 21.516 33.2906 21.46L33.3026 21.424V19.48H34.1906V20.812ZM40.0659 13.6H46.3059V15.796H45.4179V14.488H43.6779V21.112H44.9979V22H41.3619V21.112H42.6819V14.488H40.9539V15.796H40.0659V13.6ZM51.9533 19.672H48.7253L47.9573 22H46.9733L49.7812 13.6H50.9573L53.7893 22H52.7453L51.9533 19.672ZM49.0373 18.808H51.6773L50.4413 14.86H50.2973L49.0373 18.808ZM54.6966 13.6H60.4566V14.488H58.0686V21.112H60.4566V22H54.6966V21.112H57.0726V14.488H54.6966V13.6ZM63.5239 16.744L62.8759 15.532H62.8279L62.9479 16.744V22H62.0119V13.6H62.6599L66.0439 18.832L66.6679 19.984H66.7279L66.5959 18.832V13.6H67.5319V22H66.8839L63.5239 16.744Z" fill="white"/>
</svg>
