<svg width="724" height="1013" viewBox="0 0 724 1013" fill="none" xmlns="http://www.w3.org/2000/svg">
<rect y="572.287" width="439.644" height="84.5144" transform="rotate(-90 0 572.287)" fill="url(#paint0_linear_174:9701)"/>
<rect x="366.942" y="535.916" width="226.775" height="31.0243" transform="rotate(-90 366.942 535.916)" fill="url(#paint1_linear_174:9701)"/>
<rect width="299.514" height="171.168" transform="matrix(1.19261e-08 -1 -1 -1.19237e-08 705 608.654)" fill="url(#paint2_linear_174:9701)"/>
<rect width="619.416" height="51.3453" fill="url(#paint3_linear_174:9701)"/>
<rect x="27.8154" y="872.869" width="677.185" height="140.13" fill="url(#paint4_linear_174:9701)"/>
<path d="M65.241 823.264C52.9908 832.3 38.416 859.715 33.2574 857.632C27.8133 855.434 28.3578 848.259 29.6463 839.406C32.3629 820.744 36.9723 806.412 47.7016 784.21C58.0189 762.86 75.2971 740.76 104.963 719.64C132.644 699.932 162.169 699.78 171.053 701.149C181.738 702.796 185.737 713.778 192.957 727.323C202.209 744.678 223.489 761.15 257.658 770.733C291.827 780.317 330.709 782.648 352.577 782.648H492.893C499.043 782.648 527.397 782.372 527.972 797.748C529.003 825.347 539.817 832.001 565.786 842.611C591.755 853.222 622.572 858.916 640.275 860.067C685.826 863.03 705.376 855.96 716.131 848.088C725.015 841.585 726.997 830.289 718.864 823.102C707.247 812.833 686.035 805.012 694.946 822.417C701.78 835.766 698.564 845.085 692.212 849.115C681.961 855.618 668.104 856.535 645.073 853.987C621.498 851.378 600.211 845.45 578.684 834.155C564.333 826.625 546.851 808.701 541.384 797.748C535.917 786.796 526.424 771.548 505.274 770.733C498.992 770.491 368.979 770.733 352.577 770.733C336.176 770.733 285.563 766.745 266.428 759.215C247.293 751.685 225.789 739.15 216.905 719.64C208.021 700.13 200.332 691 181.826 691C169.506 691 116.802 697.144 77.1652 722.473C45.9438 742.424 31.8871 768.78 25.7367 798.901C18.4289 834.689 23.4787 858.711 27.067 861.277C35.373 867.216 48.4969 856.667 58.0189 846.913C72.4632 832.116 78.8449 827.95 84.3281 827.95C96.193 827.95 78.6544 813.37 65.241 823.264Z" fill="#5A3F92"/>
<defs>
<linearGradient id="paint0_linear_174:9701" x1="219.822" y1="572.287" x2="219.822" y2="656.802" gradientUnits="userSpaceOnUse">
<stop stop-color="#47945B"/>
<stop offset="1" stop-color="#46935A" stop-opacity="0"/>
</linearGradient>
<linearGradient id="paint1_linear_174:9701" x1="480.33" y1="535.916" x2="480.33" y2="566.94" gradientUnits="userSpaceOnUse">
<stop stop-color="#47945B"/>
<stop offset="1" stop-color="#46935A" stop-opacity="0"/>
</linearGradient>
<linearGradient id="paint2_linear_174:9701" x1="149.757" y1="0" x2="149.757" y2="171.168" gradientUnits="userSpaceOnUse">
<stop stop-color="#47945B"/>
<stop offset="1" stop-color="#46935A" stop-opacity="0"/>
</linearGradient>
<linearGradient id="paint3_linear_174:9701" x1="309.708" y1="0" x2="309.708" y2="51.3453" gradientUnits="userSpaceOnUse">
<stop stop-color="#47945B"/>
<stop offset="1" stop-color="#46935A" stop-opacity="0"/>
</linearGradient>
<linearGradient id="paint4_linear_174:9701" x1="366.408" y1="872.869" x2="366.408" y2="1013" gradientUnits="userSpaceOnUse">
<stop stop-color="#47945B"/>
<stop offset="1" stop-color="#46935A" stop-opacity="0"/>
</linearGradient>
</defs>
</svg>
