<svg width="117" height="35" viewBox="0 0 117 35" fill="none" xmlns="http://www.w3.org/2000/svg">
<ellipse cx="17.3899" cy="17.5" rx="17.3899" ry="17.5" fill="#5A3F92"/>
<ellipse cx="37.264" cy="17.5" rx="17.3899" ry="17.5" fill="#5A3F92"/>
<ellipse cx="59.1253" cy="17.5" rx="17.3899" ry="17.5" fill="#5A3F92"/>
<ellipse cx="79.9935" cy="17.5" rx="17.3899" ry="17.5" fill="#5A3F92"/>
<ellipse cx="98.8743" cy="17.5" rx="17.3899" ry="17.5" fill="#5A3F92"/>
<path d="M40.0381 20.764H40.1701L42.4501 13.6H43.4461L40.6261 22H39.4621L36.5821 13.6H37.6741L40.0381 20.764ZM44.1854 17.8C44.1854 16.408 44.4294 15.336 44.9174 14.584C45.4134 13.832 46.1734 13.456 47.1974 13.456C47.7574 13.456 48.2294 13.56 48.6134 13.768C49.0054 13.976 49.3214 14.272 49.5614 14.656C49.8014 15.032 49.9734 15.488 50.0774 16.024C50.1814 16.552 50.2334 17.144 50.2334 17.8C50.2334 19.192 49.9854 20.264 49.4894 21.016C49.0014 21.768 48.2374 22.144 47.1974 22.144C46.6454 22.144 46.1774 22.04 45.7934 21.832C45.4094 21.624 45.0974 21.332 44.8574 20.956C44.6174 20.572 44.4454 20.116 44.3414 19.588C44.2374 19.052 44.1854 18.456 44.1854 17.8ZM45.2414 17.8C45.2414 18.264 45.2694 18.704 45.3254 19.12C45.3894 19.536 45.4974 19.904 45.6494 20.224C45.8014 20.536 46.0014 20.788 46.2494 20.98C46.4974 21.164 46.8134 21.256 47.1974 21.256C47.8854 21.256 48.3854 20.976 48.6974 20.416C49.0174 19.856 49.1774 18.984 49.1774 17.8C49.1774 17.344 49.1454 16.908 49.0814 16.492C49.0254 16.068 48.9214 15.7 48.7694 15.388C48.6174 15.068 48.4134 14.816 48.1574 14.632C47.9014 14.44 47.5814 14.344 47.1974 14.344C46.5174 14.344 46.0214 14.628 45.7094 15.196C45.3974 15.756 45.2414 16.624 45.2414 17.8ZM51.8847 13.6H52.8807V21.112H56.2767V19.024H57.1647V22H51.8847V13.6ZM63.52 13.6H64.48V19.204C64.48 19.708 64.412 20.144 64.276 20.512C64.148 20.88 63.964 21.184 63.724 21.424C63.484 21.656 63.192 21.828 62.848 21.94C62.504 22.052 62.124 22.108 61.708 22.108C60.716 22.108 59.968 21.884 59.464 21.436C58.968 20.988 58.72 20.308 58.72 19.396V13.6H59.716V18.928C59.716 19.352 59.756 19.712 59.836 20.008C59.924 20.296 60.048 20.532 60.208 20.716C60.376 20.892 60.584 21.02 60.832 21.1C61.088 21.18 61.384 21.22 61.72 21.22C62.368 21.22 62.828 21.044 63.1 20.692C63.38 20.332 63.52 19.744 63.52 18.928V13.6ZM70.6793 16.42L70.7993 15.28H70.7393L70.1633 16.312L68.9393 18.364H68.6393L67.3553 16.3L66.8033 15.28H66.7433L66.8873 16.408V22H65.9153V13.6H66.8393L68.8313 16.792H68.8553L70.7753 13.6H71.6753V22H70.6793V16.42ZM73.6746 13.6H78.6066V14.488H74.6706V17.236H78.3066V18.124H74.6706V21.112H78.6666V22H73.6746V13.6Z" fill="white"/>
</svg>
